<?xml version="1.0" standalone="no"?>
<!DOCTYPE svg PUBLIC "-//W3C//DTD SVG 20010904//EN"
 "http://www.w3.org/TR/2001/REC-SVG-20010904/DTD/svg10.dtd">
<svg version="1.0" xmlns="http://www.w3.org/2000/svg"
 width="260.000000pt" height="260.000000pt" viewBox="0 0 260.000000 260.000000"
 preserveAspectRatio="xMidYMid meet">
<metadata>
Created by potrace 1.11, written by Peter Selinger 2001-2013
</metadata>
<g transform="translate(0.000000,260.000000) scale(0.100000,-0.100000)"
fill="#000000" stroke="none">
<path d="M0 1300 l0 -1300 1300 0 1300 0 0 1300 0 1300 -1300 0 -1300 0 0
-1300z m944 838 c8 -13 8 -23 -2 -38 -6 -11 -12 -22 -12 -25 0 -3 49 -5 110
-5 136 0 144 -7 98 -90 -17 -30 -44 -73 -61 -94 l-31 -39 37 -32 c21 -18 64
-47 97 -64 48 -26 60 -37 60 -56 0 -42 -34 -41 -108 3 -37 23 -82 54 -101 70
l-35 29 -50 -39 c-28 -21 -79 -53 -113 -71 -58 -30 -63 -31 -79 -15 -25 24
-13 41 58 81 35 19 80 48 100 65 l37 29 -41 54 c-22 30 -41 55 -43 57 -2 2
-16 -19 -31 -47 -34 -59 -51 -69 -76 -44 -17 18 -16 22 48 133 36 63 73 125
81 138 16 26 40 26 57 0z m-296 -75 l3 -83 43 0 c50 0 76 -21 59 -48 -5 -10
-22 -18 -36 -20 l-27 -3 36 -71 c40 -80 42 -113 4 -113 -20 0 -30 10 -50 50
l-25 50 -5 -225 c-5 -222 -5 -225 -27 -228 -38 -6 -44 25 -41 217 2 99 2 178
1 177 -1 -1 -19 -36 -40 -77 -27 -53 -43 -74 -57 -74 -43 0 -40 27 22 160 l60
130 -51 5 c-50 5 -52 6 -52 35 0 30 1 30 58 33 l57 3 0 72 c0 78 11 100 45 95
18 -3 20 -12 23 -85z m1406 41 c30 -30 28 -32 -137 -128 -119 -69 -122 -72
-125 -108 l-3 -38 168 -2 168 -3 0 -25 0 -25 -167 -3 -168 -2 0 -123 c-1 -202
-35 -247 -191 -247 -68 0 -88 3 -93 15 -13 35 4 45 76 45 72 0 121 17 132 45
3 9 6 72 6 141 l0 124 -162 2 -163 3 0 25 0 25 163 3 162 2 0 48 c0 26 4 52 8
58 4 6 45 33 92 60 l85 49 -214 3 c-237 3 -271 11 -225 56 13 14 54 16 294 16
240 0 281 -2 294 -16z m-904 -434 c18 -18 20 -33 20 -133 0 -159 8 -152 -180
-152 -188 0 -180 -6 -180 149 0 61 4 116 8 122 18 27 53 33 180 34 119 0 134
-2 152 -20z m-518 -460 c8 -12 -8 -46 -58 -135 -70 -122 -93 -142 -117 -104
-9 15 34 100 120 237 16 25 40 26 55 2z m176 -82 c3 -96 3 -98 27 -98 23 0 24
3 27 73 3 69 4 72 28 72 l25 0 0 -105 0 -105 -140 -2 -139 -1 -28 -49 c-28
-48 -28 -48 -28 -244 0 -162 -3 -199 -15 -209 -8 -7 -22 -10 -30 -6 -12 4 -15
30 -15 151 0 141 -1 145 -19 133 -15 -9 -23 -9 -35 1 -9 8 -16 17 -16 21 0 16
134 242 147 247 7 3 20 0 28 -7 12 -10 15 1 17 82 3 92 3 93 28 93 24 0 25 -3
28 -72 3 -70 4 -73 27 -73 25 0 25 1 25 93 0 52 3 97 7 101 4 4 16 6 28 4 18
-3 20 -11 23 -100z m231 88 c8 -9 10 -28 6 -50 l-7 -35 88 -3 c87 -3 89 -3 89
-28 0 -16 -8 -28 -21 -34 -18 -8 -23 -24 -33 -110 -7 -56 -21 -140 -32 -188
l-20 -87 27 -48 c15 -26 43 -69 62 -96 28 -39 32 -50 22 -62 -24 -29 -47 -16
-91 50 -43 63 -59 77 -59 53 0 -7 -11 -37 -25 -65 -18 -39 -30 -53 -45 -53
-34 0 -33 23 4 122 l35 94 -27 80 c-24 71 -29 80 -44 70 -13 -8 -21 -7 -33 5
-14 14 -12 32 15 185 17 93 35 179 40 192 11 25 32 29 49 8z m531 -1 c10 -12
10 -21 1 -41 -6 -14 -11 -27 -11 -29 0 -2 26 -5 58 -7 56 -3 57 -3 57 -33 l0
-30 -76 -3 c-75 -3 -76 -3 -92 -37 l-17 -35 83 0 c93 0 110 -7 105 -41 -3 -21
-9 -24 -55 -27 l-53 -3 0 -52 0 -52 46 0 c50 0 73 -18 61 -49 -5 -12 -19 -16
-57 -16 l-50 0 0 -95 c0 -88 2 -98 25 -120 13 -14 36 -25 50 -25 29 0 43 -25
28 -49 -15 -24 -39 -25 -88 -1 -64 31 -85 79 -85 198 l0 92 -50 0 c-38 0 -52
4 -57 16 -12 31 11 49 61 49 l46 0 0 53 c0 45 -3 52 -20 52 -13 0 -25 -12 -34
-35 -16 -38 -44 -46 -66 -20 -10 13 -1 41 54 163 37 81 74 157 82 170 17 26
36 28 54 7z m368 3 c7 -7 12 -27 12 -45 0 -31 2 -33 36 -33 l35 0 -28 24 c-23
20 -26 28 -17 43 18 29 49 27 73 -3 20 -25 20 -28 5 -45 -15 -17 -14 -18 26
-21 50 -3 72 -27 51 -52 -10 -12 -33 -16 -97 -16 l-84 0 0 -30 0 -30 83 0 c51
0 88 -5 95 -12 9 -9 12 -72 12 -220 0 -190 -2 -212 -20 -249 -24 -46 -81 -80
-107 -63 -24 15 -26 30 -8 46 69 56 65 39 65 243 l0 185 -60 0 c-59 0 -60 0
-60 -28 0 -26 3 -28 34 -24 42 5 76 -12 76 -39 0 -23 -21 -33 -72 -33 -36 0
-38 -1 -38 -33 0 -32 1 -33 44 -33 49 0 71 -18 61 -50 -5 -17 -15 -20 -56 -20
l-49 0 0 -104 c0 -82 -3 -106 -16 -117 -11 -9 -20 -10 -32 -2 -14 8 -18 30
-20 117 l-3 106 -42 0 c-39 0 -67 13 -67 31 0 20 35 39 71 39 38 0 39 1 39 35
l0 35 -49 0 c-34 0 -51 4 -55 15 -14 37 26 63 79 53 22 -5 25 -2 25 23 0 29
-1 29 -60 29 l-60 0 0 -240 c0 -132 -2 -240 -4 -240 -2 0 -11 -3 -19 -6 -8 -3
-22 2 -31 11 -14 14 -16 49 -15 268 0 164 4 256 11 264 7 9 38 13 94 13 l84 0
0 30 0 29 -87 3 -88 3 0 30 0 30 88 3 87 3 0 32 c0 33 15 57 35 57 6 0 16 -5
23 -12z m-1033 -328 l0 -25 -121 -3 c-99 -2 -123 0 -134 13 -10 12 -10 18 0
30 11 13 35 15 134 13 l121 -3 0 -25z m-15 -204 l5 -128 33 -28 c39 -33 40
-63 2 -68 -18 -2 -35 7 -60 33 l-35 36 -3 110 -4 109 -48 0 -48 0 -4 -109 -3
-110 -35 -36 c-25 -26 -42 -35 -60 -33 -38 5 -36 33 4 72 l36 33 0 121 c0 87
3 122 13 126 6 2 55 4 107 3 l95 -2 5 -129z"/>
<path d="M930 1994 c0 -3 14 -26 31 -50 l31 -46 22 21 c11 11 29 34 39 50 l18
31 -70 0 c-39 0 -71 -3 -71 -6z"/>
<path d="M887 1614 c-4 -4 -7 -40 -7 -80 0 -56 3 -73 16 -78 23 -9 177 -7 192
3 9 5 12 29 10 82 l-3 74 -101 3 c-55 1 -103 0 -107 -4z"/>
<path d="M1033 985 c8 -110 27 -197 37 -169 9 23 28 147 32 208 3 39 3 39 -36
40 l-39 1 6 -80z"/>
</g>
</svg>
