<?xml version="1.0" encoding="utf-8"?>
<!-- Generator: Adobe Illustrator 22.0.0, SVG Export Plug-In . SVG Version: 6.00 Build 0)  -->
<svg version="1.1" id="图层_1" xmlns="http://www.w3.org/2000/svg" xmlns:xlink="http://www.w3.org/1999/xlink" x="0px" y="0px"
	 viewBox="0 0 300 90" style="enable-background:new 0 0 300 90;" xml:space="preserve">
<style type="text/css">
	.st0{fill:#F3371D;}
	.st1{display:none;}
	.st2{display:inline;fill:#FFFFFF;}
	.st3{display:inline;fill:#232323;}
	.st4{fill:#FFFFFF;}
</style>
<g>
	<path class="st0" d="M70,90H20C9,90,0,81,0,70V20C0,9,9,0,20,0h50c11,0,20,9,20,20v50C90,81,81,90,70,90z"/>
</g>
<g class="st1">
	<path class="st2" d="M46.5,18c3.6,0,6.6,0.5,8.9,1.6c2.3,1.1,4.1,2.6,5.4,4.6c1.3,2,2.2,4.3,2.7,7.1c0.5,2.7,0.8,5.8,0.8,9.1
		c0,3-0.3,5.8-0.8,8.5c-0.5,2.7-1.4,5.1-2.7,7.1c-1.3,2.1-3.1,3.7-5.4,4.9s-5.3,1.8-8.9,1.8c-4.2,0-7.4-0.7-9.5-2.2
		c-2.1-1.5-3.6-3.5-4.5-6.1V78h-6.9V18.8h6.9v7.8c0.9-2.6,2.4-4.6,4.6-6.2C39.2,18.8,42.4,18,46.5,18z M45.6,57
		c2.6,0,4.6-0.5,6.1-1.4c1.5-0.9,2.7-2.2,3.5-3.7c0.8-1.5,1.3-3.3,1.6-5.3c0.2-2,0.4-4,0.4-6.1c0-2.3-0.1-4.4-0.4-6.4
		c-0.3-2-0.8-3.8-1.6-5.3s-2-2.7-3.5-3.6c-1.5-0.9-3.5-1.3-6-1.3c-2.6,0-4.8,0.4-6.5,1.2c-1.7,0.8-3.1,1.9-4.1,3.3
		c-1,1.4-1.8,3.2-2.2,5.2c-0.4,2.1-0.6,4.4-0.6,6.9c0,2.5,0.2,4.8,0.6,6.8c0.4,2,1.2,3.8,2.2,5.2c1,1.4,2.4,2.6,4.1,3.4
		C40.9,56.6,43,57,45.6,57z"/>
</g>
<g class="st1">
	<path class="st3" d="M95,44.5c0-9.9,4.7-13.2,12.4-13.2c2.4,0,5.2,0.4,6.7,1v3c-1.7-0.7-4-1-6.5-1c-5.7,0-9.1,2-9.1,10.3
		c0,8.7,3.1,10.3,8.9,10.3c1.2,0,3-0.1,4.2-0.5v-8h-5.1v-2.8h8.3v13.1c-1.9,0.6-4.5,1.1-7.7,1.1C99.5,57.7,95,55.2,95,44.5z"/>
	<path class="st3" d="M136.7,47.7l-13.5,0.9c0,4.4,1.6,6.4,6.4,6.4c2.2,0,4.7-0.6,6.3-1.3v2.9c-1.1,0.6-3.9,1.2-6.7,1.2
		c-5.9,0-9.3-2.4-9.3-10.4c0-8,3.4-10.4,9.1-10.4c6.8,0,8,4.5,8,8.4C136.9,45.9,136.8,46.8,136.7,47.7z M133.8,45.4
		c0-3.1-0.5-5.8-4.8-5.8c-4.6,0-5.6,2.5-5.7,6.5L133.8,45.4z"/>
	<path class="st3" d="M140.7,54.7l11.2-14.5V40h-10.4v-2.6h14.2v2.4l-11.3,14.6v0.2h12v2.7h-15.8V54.7z"/>
	<path class="st3" d="M160.8,31.8c0-1.7,0.5-1.9,1.9-1.9c1.3,0,1.9,0.2,1.9,1.9c0,1.6-0.6,1.9-1.9,1.9
		C161.4,33.7,160.8,33.4,160.8,31.8z M161.1,37.4h3.2v20h-3.2V37.4z"/>
	<path class="st3" d="M170.9,55.2c0-2,0.6-2.3,2.4-2.3c1.7,0,2.4,0.3,2.4,2.3c0,2.1-0.7,2.4-2.4,2.4
		C171.5,57.6,170.9,57.3,170.9,55.2z"/>
	<path class="st3" d="M181,56.7v-3.1c1.5,0.6,4.6,1.1,7.6,1.1c3.8,0,5.8-1.1,5.8-4.3c0-3.1-1.1-4-5.9-5.1c-5.3-1.3-7.2-2.6-7.2-7.1
		c0-4.7,2.7-7,8.5-7c2.5,0,5.2,0.4,6.4,0.9v3c-1.5-0.6-4.1-1-6.4-1c-3.6,0-5.3,0.7-5.3,4c0,2.4,0.6,3.3,5.3,4.3
		c5.7,1.3,7.8,2.8,7.8,7.9c0,5-3.2,7.3-9.1,7.3C185.4,57.7,182.2,57.2,181,56.7z"/>
	<path class="st3" d="M211.5,54.7v2.7c-0.8,0.1-1.4,0.2-2.3,0.2c-4.4,0-6-1.1-6-6.3V40h-3v-2.7h3v-4.7h3.2v4.7h5V40h-5v11
		c0,3.1,0.4,3.8,2.9,3.8C210.2,54.9,210.8,54.8,211.5,54.7z"/>
	<path class="st3" d="M214.4,47.3c0-8,3.4-10.4,9.2-10.4c5.9,0,9.2,2.4,9.2,10.4c0,8-3.3,10.4-9.2,10.4
		C217.8,57.7,214.4,55.3,214.4,47.3z M229.5,47.3c0-5.8-1.5-7.7-5.8-7.7c-4.5,0-5.8,1.9-5.8,7.7c0,5.8,1.5,7.7,5.8,7.7
		C228.2,55,229.5,53.2,229.5,47.3z"/>
	<path class="st3" d="M248.4,37l-0.1,2.9h-0.4c-2.6,0-5.1,0.9-6.2,4.4v13.1h-3.2v-20h3.2V41c1.3-3.3,4-4,6.4-4H248.4z"/>
	<path class="st3" d="M267.5,47.7l-13.5,0.9c0,4.4,1.6,6.4,6.4,6.4c2.2,0,4.7-0.6,6.3-1.3v2.9c-1.1,0.6-3.9,1.2-6.7,1.2
		c-5.9,0-9.2-2.4-9.2-10.4c0-8,3.4-10.4,9.1-10.4c6.8,0,8,4.5,8,8.4C267.7,45.9,267.6,46.8,267.5,47.7z M264.5,45.4
		c0-3.1-0.5-5.8-4.8-5.8c-4.6,0-5.6,2.5-5.7,6.5L264.5,45.4z"/>
</g>
<g>
	<path d="M103.4,35.7h7c1.8,0,3.3,0.2,4.5,0.5c1.2,0.3,2.1,0.8,2.9,1.5s1.2,1.5,1.5,2.5c0.3,1,0.4,2.2,0.4,3.6
		c0,1.5-0.2,2.7-0.5,3.8c-0.4,1-0.9,1.9-1.6,2.6c-0.7,0.7-1.7,1.1-2.9,1.4c-1.2,0.3-2.6,0.5-4.2,0.5h-3.8v9h-3.3V35.7z M110.1,49.3
		c1.2,0,2.2-0.1,3-0.3c0.8-0.2,1.4-0.5,1.9-0.9c0.5-0.4,0.8-1,1-1.7c0.2-0.7,0.3-1.6,0.3-2.7c0-1-0.1-1.8-0.3-2.5
		c-0.2-0.7-0.5-1.2-1-1.6s-1.1-0.7-1.9-0.9c-0.8-0.2-1.8-0.3-3-0.3h-3.5v10.8H110.1z"/>
	<path d="M140.8,41.3V61h-2.7l-0.4-2.8c-0.3,0.7-0.7,1.2-1.1,1.6c-0.5,0.4-1,0.7-1.5,1s-1.1,0.4-1.7,0.5c-0.6,0.1-1.2,0.1-1.8,0.1
		c-1.3,0-2.4-0.2-3.2-0.5c-0.9-0.3-1.5-0.8-2-1.3c-0.5-0.6-0.9-1.2-1.1-2c-0.2-0.8-0.3-1.7-0.3-2.6V41.3h3.1v12.5c0,0.8,0,1.4,0.1,2
		c0.1,0.6,0.3,1.1,0.6,1.5c0.3,0.4,0.7,0.7,1.2,0.9c0.5,0.2,1.1,0.3,1.9,0.3c0.6,0,1.2,0,1.8-0.1c0.6-0.1,1.1-0.3,1.6-0.5
		c0.5-0.3,0.9-0.7,1.4-1.2s0.7-1.2,1-2V41.3H140.8z"/>
	<path d="M157,40.9c1.7,0,3,0.2,4.1,0.7c1.1,0.5,1.9,1.2,2.5,2.1c0.6,0.9,1,2,1.2,3.2c0.2,1.3,0.3,2.6,0.3,4.1
		c0,1.4-0.1,2.7-0.3,3.9c-0.2,1.2-0.6,2.3-1.2,3.2c-0.6,0.9-1.4,1.7-2.5,2.2c-1.1,0.6-2.4,0.8-4.1,0.8c-1.9,0-3.4-0.3-4.3-1
		c-1-0.7-1.6-1.6-2.1-2.8v10.7h-3.1v-27h3.1v3.5c0.4-1.2,1.1-2.1,2.1-2.8C153.6,41.3,155.1,40.9,157,40.9z M156.6,58.7
		c1.2,0,2.1-0.2,2.8-0.6s1.2-1,1.6-1.7c0.4-0.7,0.6-1.5,0.7-2.4s0.2-1.8,0.2-2.8c0-1-0.1-2-0.2-2.9c-0.1-0.9-0.4-1.7-0.7-2.4
		c-0.4-0.7-0.9-1.2-1.6-1.6c-0.7-0.4-1.6-0.6-2.8-0.6c-1.2,0-2.2,0.2-3,0.5c-0.8,0.4-1.4,0.9-1.9,1.5c-0.5,0.7-0.8,1.5-1,2.4
		c-0.2,0.9-0.3,2-0.3,3.2c0,1.1,0.1,2.2,0.3,3.1c0.2,0.9,0.5,1.7,1,2.4c0.5,0.7,1.1,1.2,1.9,1.5C154.4,58.5,155.4,58.7,156.6,58.7z"
		/>
	<path d="M172.2,37.7c-0.7,0-1.2-0.1-1.5-0.3c-0.3-0.2-0.4-0.7-0.4-1.5c0-0.8,0.1-1.3,0.4-1.6c0.3-0.2,0.8-0.3,1.5-0.3
		c0.7,0,1.1,0.1,1.4,0.3c0.3,0.2,0.4,0.7,0.4,1.6c0,0.8-0.1,1.3-0.4,1.5C173.4,37.6,172.9,37.7,172.2,37.7z M170.6,41.3h3.1V61h-3.1
		V41.3z"/>
	<path d="M182.6,61.2c-0.9,0-1.5-0.1-1.8-0.4c-0.4-0.3-0.5-0.9-0.5-1.9c0-1,0.2-1.6,0.5-1.9c0.4-0.3,1-0.4,1.8-0.4
		c0.8,0,1.4,0.1,1.8,0.4c0.4,0.3,0.5,0.9,0.5,1.9c0,1-0.2,1.7-0.5,1.9C184,61.1,183.4,61.2,182.6,61.2z"/>
	<path d="M197.7,61.4c-0.8,0-1.6,0-2.3-0.1c-0.8-0.1-1.5-0.1-2.2-0.2c-0.7-0.1-1.3-0.2-1.8-0.3c-0.5-0.1-0.9-0.2-1.3-0.3v-3
		c0.4,0.1,0.8,0.3,1.4,0.4c0.6,0.1,1.2,0.3,1.8,0.4c0.7,0.1,1.3,0.2,2.1,0.3c0.7,0.1,1.5,0.1,2.2,0.1c1.9,0,3.3-0.3,4.3-0.9
		c1-0.6,1.5-1.7,1.5-3.3c0-0.8-0.1-1.4-0.2-2c-0.2-0.5-0.5-1-0.9-1.3c-0.4-0.4-1-0.7-1.8-0.9s-1.7-0.5-2.9-0.8
		c-1.3-0.3-2.4-0.6-3.3-1c-0.9-0.3-1.6-0.8-2.2-1.3c-0.6-0.5-1-1.2-1.2-1.9c-0.3-0.8-0.4-1.7-0.4-2.8c0-2.3,0.7-4,2.1-5.2
		s3.5-1.7,6.4-1.7c0.6,0,1.2,0,1.8,0.1c0.6,0,1.2,0.1,1.8,0.2c0.6,0.1,1.1,0.2,1.6,0.3s0.9,0.2,1.1,0.3v3c-0.7-0.3-1.7-0.5-2.8-0.7
		c-1.2-0.2-2.3-0.3-3.5-0.3c-0.9,0-1.6,0.1-2.3,0.2s-1.2,0.3-1.6,0.6s-0.8,0.7-1,1.2c-0.2,0.5-0.3,1.2-0.3,2c0,0.6,0.1,1.1,0.2,1.5
		c0.1,0.4,0.3,0.8,0.7,1.1s0.9,0.6,1.6,0.9s1.6,0.5,2.7,0.8c1.4,0.3,2.6,0.7,3.6,1.1c1,0.4,1.8,0.9,2.4,1.4c0.6,0.6,1,1.3,1.3,2.1
		c0.3,0.8,0.4,1.9,0.4,3.1c0,2.5-0.8,4.3-2.3,5.5C202.9,60.8,200.6,61.4,197.7,61.4z"/>
	<path d="M221.5,40.9c1.3,0,2.4,0.2,3.2,0.5c0.9,0.3,1.5,0.8,2,1.3c0.5,0.6,0.9,1.2,1.1,2s0.3,1.6,0.3,2.6V61H225V48.5
		c0-0.8,0-1.4-0.1-2c-0.1-0.6-0.3-1.1-0.6-1.5c-0.3-0.4-0.7-0.7-1.2-0.9c-0.5-0.2-1.1-0.3-1.9-0.3c-0.6,0-1.2,0-1.8,0.1
		c-0.6,0.1-1.2,0.3-1.7,0.5c-0.5,0.3-1,0.7-1.4,1.2c-0.4,0.5-0.8,1.2-1,2.1V61h-3.1V33.3h3.1v10.8c0.3-0.6,0.7-1.2,1.1-1.6
		c0.5-0.4,1-0.7,1.5-1c0.6-0.2,1.1-0.4,1.8-0.5S220.9,40.9,221.5,40.9z"/>
	<path d="M242.6,61.4c-1.5,0-2.8-0.2-3.9-0.5c-1.1-0.3-2.1-0.9-2.9-1.7s-1.4-1.8-1.8-3.1c-0.4-1.3-0.6-2.9-0.6-4.9s0.2-3.6,0.6-4.9
		c0.4-1.3,1-2.3,1.8-3.1c0.8-0.8,1.7-1.3,2.9-1.7c1.1-0.3,2.4-0.5,3.9-0.5s2.8,0.2,3.9,0.5c1.1,0.3,2.1,0.9,2.8,1.7
		c0.8,0.8,1.3,1.8,1.8,3.1c0.4,1.3,0.6,2.9,0.6,4.9s-0.2,3.6-0.6,4.9c-0.4,1.3-1,2.3-1.8,3.1c-0.8,0.8-1.7,1.3-2.8,1.7
		S244,61.4,242.6,61.4z M242.6,58.7c1.1,0,2-0.1,2.8-0.4c0.7-0.2,1.3-0.7,1.8-1.2c0.4-0.6,0.7-1.4,0.9-2.3c0.2-1,0.3-2.2,0.3-3.6
		c0-1.4-0.1-2.6-0.3-3.6s-0.5-1.8-1-2.3s-1-1-1.8-1.3c-0.7-0.3-1.6-0.4-2.7-0.4c-1.1,0-2,0.1-2.8,0.4c-0.7,0.3-1.3,0.7-1.8,1.3
		s-0.8,1.4-0.9,2.3s-0.3,2.2-0.3,3.6c0,1.4,0.1,2.6,0.3,3.6c0.2,1,0.5,1.8,1,2.3s1.1,1,1.8,1.2C240.6,58.6,241.5,58.7,242.6,58.7z"
		/>
	<path d="M266.7,40.9c1.7,0,3,0.2,4.1,0.7c1.1,0.5,1.9,1.2,2.5,2.1c0.6,0.9,1,2,1.2,3.2c0.2,1.3,0.3,2.6,0.3,4.1
		c0,1.4-0.1,2.7-0.3,3.9c-0.2,1.2-0.6,2.3-1.2,3.2c-0.6,0.9-1.4,1.7-2.5,2.2c-1.1,0.6-2.4,0.8-4.1,0.8c-1.9,0-3.4-0.3-4.3-1
		c-1-0.7-1.6-1.6-2.1-2.8v10.7h-3.1v-27h3.1v3.5c0.4-1.2,1.1-2.1,2.1-2.8C263.3,41.3,264.8,40.9,266.7,40.9z M266.3,58.7
		c1.2,0,2.1-0.2,2.8-0.6s1.2-1,1.6-1.7c0.4-0.7,0.6-1.5,0.7-2.4s0.2-1.8,0.2-2.8c0-1-0.1-2-0.2-2.9c-0.1-0.9-0.4-1.7-0.7-2.4
		c-0.4-0.7-0.9-1.2-1.6-1.6c-0.7-0.4-1.6-0.6-2.8-0.6c-1.2,0-2.2,0.2-3,0.5c-0.8,0.4-1.4,0.9-1.9,1.5c-0.5,0.7-0.8,1.5-1,2.4
		c-0.2,0.9-0.3,2-0.3,3.2c0,1.1,0.1,2.2,0.3,3.1c0.2,0.9,0.5,1.7,1,2.4c0.5,0.7,1.1,1.2,1.9,1.5C264.1,58.5,265.1,58.7,266.3,58.7z"
		/>
</g>
<g>
	<path class="st4" d="M25,19h17.3c4.4,0,8,0.4,10.9,1.2c2.9,0.8,5.3,2,7,3.6c1.8,1.6,3,3.7,3.7,6.2c0.7,2.5,1.1,5.5,1.1,8.9
		c0,3.6-0.4,6.7-1.3,9.3c-0.9,2.6-2.2,4.6-4,6.3c-1.8,1.6-4.2,2.8-7.1,3.5c-2.9,0.7-6.3,1.1-10.3,1.1h-9.2v22H25V19z M41.6,52.3
		c2.9,0,5.3-0.2,7.2-0.6s3.5-1.1,4.7-2.2c1.2-1,2-2.4,2.5-4.2c0.5-1.7,0.8-3.9,0.8-6.5c0-2.4-0.3-4.4-0.8-6c-0.5-1.6-1.3-3-2.5-4
		c-1.2-1-2.7-1.7-4.7-2.2c-2-0.4-4.4-0.7-7.2-0.7h-8.5v26.4H41.6z"/>
</g>
</svg>
